# xmcd
#
# Track frame offsets:
#	150
#	16097
#	32247
#	56565
#	73782
#	98790
#	113340
#	131122
#	147650
#	160595
#	182270
#	199107
#	217690
#	236222
#
# Disc length: 3699 seconds
#
# Revision: 0
# Processed by: cddbd v1.5.2PL0 Copyright (c) Steve Scherf et al.
# Submitted via: dBpowerAMP V4.0
#
DISCID=bc0e710e
DTITLE=Ronnie Earl and the Broadcasters - Peace of Mind
DYEAR=1900
DGENRE=Blues
TTITLE0=I Want To Shout About It
TTITLE1=I Wish You Could See Me Now
TTITLE2=Peace of Mind
TTITLE3=T-Boone Boogie
TTITLE4=Wayne's Blues
TTITLE5=Bonehead Too
TTITLE6=More Than I Deserve
TTITLE7=Can't Keep From Crying
TTITLE8=I Cried My Eyes Out
TTITLE9=No Use Crying
TTITLE10=Stickin'
TTITLE11=Wayward Angel
TTITLE12=I Can't Keep From Cryin(Live)
TTITLE13=I Found A New Love(Live)
EXTD=
EXTT0=
EXTT1=
EXTT2=
EXTT3=
EXTT4=
EXTT5=
EXTT6=
EXTT7=
EXTT8=
EXTT9=
EXTT10=
EXTT11=
EXTT12=
EXTT13=
PLAYORDER=
